<?xml version="1.0" encoding="utf-8"?>
<!-- Generator: Adobe Illustrator 26.3.1, SVG Export Plug-In . SVG Version: 6.00 Build 0)  -->
<svg version="1.1" id="圖層_1" xmlns="http://www.w3.org/2000/svg" xmlns:xlink="http://www.w3.org/1999/xlink" x="0px" y="0px"
	 viewBox="0 0 24 24" style="enable-background:new 0 0 24 24;" xml:space="preserve">
<style type="text/css">
	.st0{fill:#FFFFFF;}
</style>
<path class="st0" d="M5.7,4.1L5.4,2.8C5.1,1.7,4.2,1,3.1,1H2v1.6h1.1c0.4,0,0.7,0.2,0.8,0.6l2.7,11.4l0.3,1.2
	c0.3,1.1,1.2,1.8,2.3,1.8h10.6v-1.6H9.2c-0.4,0-0.7-0.2-0.8-0.6l-0.1-0.4l11.4-2.7c0.8-0.2,1.5-0.9,1.7-1.7L23,4.1H5.7z M20,10.1
	c-0.1,0.3-0.3,0.5-0.6,0.6L8,13.4L6.1,5.7h15L20,10.1z M5.9,20.6c0-1.3,1-2.4,2.3-2.4s2.3,1.1,2.3,2.4S9.4,23,8.2,23
	S5.9,21.9,5.9,20.6z M7.4,20.6c0,0.4,0.3,0.8,0.8,0.8c0.4,0,0.8-0.4,0.8-0.8c0-0.4-0.3-0.8-0.8-0.8C7.7,19.9,7.4,20.2,7.4,20.6z
	 M15.3,19.7c0.4-0.9,1.2-1.5,2.1-1.5c1.3,0,2.3,1.1,2.3,2.4c0,1-0.6,1.8-1.4,2.2c-0.9,0.4-1.9,0.2-2.5-0.5
	C15.1,21.6,14.9,20.6,15.3,19.7z M16.7,20.6c0,0.4,0.3,0.8,0.8,0.8c0.4,0,0.8-0.4,0.8-0.8c0-0.4-0.3-0.8-0.8-0.8
	C17,19.9,16.7,20.2,16.7,20.6z"/>
</svg>
