<?xml version="1.0" encoding="utf-8"?>
<!-- Generator: Adobe Illustrator 26.3.1, SVG Export Plug-In . SVG Version: 6.00 Build 0)  -->
<svg version="1.1" id="Layer_1" xmlns="http://www.w3.org/2000/svg" xmlns:xlink="http://www.w3.org/1999/xlink" x="0px" y="0px"
	 viewBox="0 0 96 96" style="enable-background:new 0 0 96 96;" xml:space="preserve">
<style type="text/css">
	.st0{fill-rule:evenodd;clip-rule:evenodd;fill:#2A2A2A;}
</style>
<g>
	<path class="st0" d="M48,0c26.5,0,48,21.5,48,48S74.5,96,48,96S0,74.5,0,48S21.5,0,48,0L48,0z M26.8,49.3c0.6-3.7,4.9-5.8,8.3-3.8
		c0.3,0.2,0.6,0.4,0.9,0.6l0,0c1.5,1.4,3.2,3,4.9,4.4l1.4,1.3L59.3,34c1-1.1,1.8-1.8,3.3-2.1c5.2-1.2,8.9,5.2,5.2,9.2L46.5,63.4
		c-2,2.1-5.6,2.3-7.7,0.3c-1.2-1.1-2.6-2.3-3.9-3.5c-2.3-2-4.7-4.1-6.7-6.2C27,52.8,26.5,50.9,26.8,49.3L26.8,49.3z"/>
</g>
</svg>
