<?xml version="1.0" encoding="utf-8"?>
<!-- Generator: Adobe Illustrator 26.3.1, SVG Export Plug-In . SVG Version: 6.00 Build 0)  -->
<svg version="1.1" id="圖層_1" xmlns="http://www.w3.org/2000/svg" xmlns:xlink="http://www.w3.org/1999/xlink" x="0px" y="0px"
	 viewBox="0 0 24 24" style="enable-background:new 0 0 24 24;" xml:space="preserve">
<style type="text/css">
	.st0{fill:#040000;}
</style>
<path class="st0" d="M7.9,8.1C7.7,8,7.4,8,7.2,8.1l-5,4.2l-0.1,0.1C2,12.5,2,12.7,2.1,12.9l5,4l0.1,0C7.4,17,7.7,17,7.9,16.9
	l0.1-0.1C8,16.7,8,16.4,7.9,16.3L3.7,13H22l0.1,0c0.2,0,0.4-0.2,0.4-0.5c0-0.3-0.2-0.5-0.5-0.5H3.9l4-3.3l0.1-0.1
	C8,8.5,8,8.3,7.9,8.1z"/>
</svg>
